<svg width="23" height="20" viewBox="0 0 23 20" fill="none" xmlns="http://www.w3.org/2000/svg">
<path fill-rule="evenodd" clip-rule="evenodd" d="M10.8953 2.41423C11.1671 2.25761 11.49 2.21534 11.793 2.29671C12.096 2.37808 12.3543 2.57644 12.5111 2.84817L18.599 13.3906C18.7534 13.6623 18.7942 13.9841 18.7123 14.2857C18.6304 14.5873 18.4326 14.8442 18.1619 15.0005C17.8913 15.1568 17.5698 15.1996 17.2677 15.1197C16.9655 15.0399 16.7072 14.8437 16.5492 14.5741L16.4624 14.4226L11.5833 15.5556C11.8014 16.3574 11.7207 17.2111 11.3562 17.9577C10.9916 18.7044 10.3682 19.2931 9.6019 19.6143C8.83561 19.9355 7.97869 19.9673 7.19073 19.7036C6.40277 19.44 5.73748 18.899 5.31872 18.1814L5.31557 18.1766L4.72225 17.1494L2.42787 17.6812C2.26314 17.7194 2.09049 17.7037 1.93537 17.6363C1.78025 17.569 1.65087 17.4536 1.56629 17.3072L0.605306 15.6424C0.520956 15.496 0.485855 15.3263 0.505172 15.1584C0.524489 14.9905 0.597204 14.8333 0.712608 14.7098L10.5513 4.18472L10.4614 4.03165C10.3836 3.89698 10.3331 3.74829 10.3128 3.5941C10.2925 3.4399 10.3028 3.28321 10.3431 3.133C10.3834 2.98278 10.4529 2.84198 10.5476 2.71865C10.6424 2.59532 10.7605 2.49187 10.8953 2.41423ZM7.13182 16.5892L9.27313 16.0921C9.36646 16.3411 9.3627 16.6161 9.26262 16.8624C9.16253 17.1087 8.97343 17.3083 8.73291 17.4216C8.49238 17.535 8.21803 17.5536 7.96437 17.4739C7.71071 17.3943 7.49631 17.2221 7.36378 16.9916L7.13182 16.5892Z" fill="#F2F2F2"/>
<path d="M19.3904 4.12997C19.9651 3.77211 20.7211 3.94788 21.0789 4.52256C21.4368 5.09724 21.261 5.85321 20.6863 6.21107L18.7718 7.40323C18.1971 7.76109 17.4412 7.58532 17.0833 7.01064C16.7255 6.43596 16.9012 5.67999 17.4759 5.32213L19.3904 4.12997Z" fill="#F2F2F2"/>
<path d="M15.9221 0.822803C16.2991 0.260469 17.0605 0.110193 17.6229 0.487152C18.1852 0.864112 18.3355 1.62556 17.9585 2.18789L16.7027 4.06126C16.3257 4.6236 15.5643 4.77387 15.002 4.39691C14.4396 4.01995 14.2894 3.25851 14.6663 2.69617L15.9221 0.822803Z" fill="#F2F2F2"/>
<path d="M21.2111 8.61002C21.8872 8.5752 22.4635 9.09506 22.4984 9.77115C22.5332 10.4473 22.0133 11.0236 21.3372 11.0584L19.0849 11.1744C18.4088 11.2092 17.8325 10.6893 17.7976 10.0132C17.7628 9.33715 18.2827 8.76084 18.9588 8.72602L21.2111 8.61002Z" fill="#F2F2F2"/>
</svg>
