<svg width="19" height="19" viewBox="0 0 19 19" fill="none" xmlns="http://www.w3.org/2000/svg">
<path fill-rule="evenodd" clip-rule="evenodd" d="M8.79203 0.498326C8.97982 0.310598 9.23447 0.205139 9.5 0.205139C9.76553 0.205139 10.0202 0.310598 10.208 0.498326L16.2162 6.50653L18.2189 8.50926C18.4013 8.69812 18.5022 8.95107 18.5 9.21362C18.4977 9.47618 18.3924 9.72734 18.2067 9.913C18.021 10.0987 17.7699 10.204 17.5073 10.2063C17.2448 10.2085 16.9918 10.1076 16.803 9.9252L16.5096 9.63179V16.2268C16.5096 16.758 16.2986 17.2674 15.923 17.6429C15.5474 18.0185 15.038 18.2295 14.5068 18.2295H11.5027C11.2372 18.2295 10.9825 18.124 10.7947 17.9362C10.6069 17.7484 10.5014 17.4937 10.5014 17.2282V14.2241H8.49863V17.2282C8.49863 17.4937 8.39313 17.7484 8.20534 17.9362C8.01755 18.124 7.76284 18.2295 7.49727 18.2295H4.49316C3.96201 18.2295 3.4526 18.0185 3.07702 17.6429C2.70143 17.2674 2.49043 16.758 2.49043 16.2268V9.63179L2.19703 9.9252C2.00817 10.1076 1.75522 10.2085 1.49267 10.2063C1.23011 10.204 0.978955 10.0987 0.793294 9.913C0.607632 9.72734 0.502319 9.47618 0.500038 9.21362C0.497756 8.95107 0.598688 8.69812 0.781096 8.50926L2.78383 6.50653L8.79203 0.498326Z" fill="#F2F2F2"/>
</svg>
