<svg width="30" height="25" viewBox="0 0 30 25" fill="none" xmlns="http://www.w3.org/2000/svg">
<g id="Lyric-Icon" clip-path="url(#clip0_47_209)">
<path id="Vector" d="M0.5 23.0121C0.5 15.8726 0.5 8.73191 0.5 1.59246C0.523138 1.78656 0.564273 1.98067 0.565559 2.17477C0.573271 2.99104 0.568129 3.80602 0.568129 4.62229C0.587411 3.69547 0.595124 2.76994 0.583555 1.84312C0.574557 1.1374 0.903635 0.63993 1.48209 0.278716C1.82017 0.0691856 2.19424 -0.00537109 2.58373 -0.00537109C4.24712 -0.00537109 5.91051 -0.00537109 7.57389 -0.00151471C10.0805 0.00491259 12.5859 0.0151963 15.0926 0.022909C16.1749 0.0267654 17.2573 0.0267654 18.3409 0.0319073C19.3423 0.0370491 20.1431 0.677209 20.2935 1.64259C20.3604 2.07579 20.3501 2.52442 20.3411 2.96533C20.3218 3.94871 20.3604 4.93208 20.1958 5.91161C19.9169 7.56985 19.6842 9.23452 19.431 10.8979C19.4014 11.0946 19.3719 11.2925 19.341 11.5085C18.5273 11.1833 17.702 11.0843 16.8588 11.1331C16.0155 11.182 15.225 11.4185 14.491 11.835C13.7518 12.2541 13.1387 12.8158 12.6502 13.51C11.2824 15.4549 11.2863 18.0734 12.6875 20.0208C13.3482 20.9386 14.2056 21.6199 15.2738 22.003C17.0169 22.629 18.6906 22.4503 20.2897 21.5017C20.2974 21.5325 20.3064 21.5531 20.3064 21.5724C20.3064 21.9349 20.3192 22.2974 20.3 22.6586C20.2601 23.3939 19.9233 23.9582 19.2639 24.3066C19.1122 24.3875 18.9374 24.4274 18.7703 24.4788C18.7201 24.4942 18.6893 24.4981 18.7433 24.5469H2.19681C2.23923 24.5302 2.28165 24.5135 2.32793 24.4955C1.36897 24.3914 0.778945 23.8746 0.552704 22.9375C0.530851 22.9697 0.516711 22.9902 0.501285 23.0121H0.5ZM10.4083 5.78692V5.80106C12.1103 5.80106 13.8109 5.80106 15.5129 5.80106C16.0566 5.80106 16.4899 5.37171 16.4924 4.83182C16.4937 4.30864 16.0708 3.87415 15.5399 3.86644C14.7673 3.85358 13.9935 3.84073 13.2209 3.83944C10.8904 3.83687 8.55856 3.83944 6.22801 3.83944C5.93493 3.83944 5.64056 3.82916 5.34747 3.83944C4.9207 3.85487 4.5762 4.02198 4.41294 4.43975C4.26897 4.80868 4.31268 5.16218 4.58134 5.46941C4.79344 5.71236 5.06853 5.78949 5.38347 5.7882C7.05842 5.78306 8.73338 5.78563 10.4083 5.78563V5.78692ZM10.4546 9.62916C10.4546 9.63687 10.4546 9.64587 10.4546 9.65358C12.145 9.65358 13.8354 9.65358 15.5245 9.65358C15.9911 9.65358 16.3446 9.36564 16.4551 8.90801C16.558 8.4851 16.351 8.04033 15.9615 7.82951C15.7648 7.72282 15.554 7.72025 15.3406 7.72025C12.0409 7.71511 8.74109 7.70868 5.44003 7.70482C5.32305 7.70482 5.20479 7.71511 5.09038 7.73567C4.64304 7.81537 4.28825 8.32313 4.36024 8.77176C4.44637 9.31036 4.82686 9.62916 5.39889 9.62916C7.08413 9.63173 8.76809 9.62916 10.4533 9.62916H10.4546ZM7.89012 13.4958V13.4984C8.73723 13.4984 9.58564 13.5087 10.4328 13.4945C11.0009 13.4855 11.3776 13.0793 11.3891 12.5304C11.3981 12.1127 11.0562 11.5625 10.4469 11.5625C10.0947 11.5625 9.74375 11.5625 9.39153 11.5625C8.04823 11.5625 6.70492 11.5548 5.36161 11.5663C4.69574 11.5715 4.25997 12.2116 4.47079 12.8415C4.59034 13.2002 4.90528 13.5074 5.49145 13.4984C6.291 13.4868 7.09056 13.4958 7.89012 13.4958Z" fill="#F2F2F2"/>
<path id="Vector_2" d="M22.3578 10.3966C22.3154 10.6614 22.2743 10.9108 22.2357 11.1614C22.0481 12.3916 21.8604 13.6231 21.6727 14.8533C21.5403 15.7261 21.4195 16.6015 21.2729 17.4731C20.9888 19.1699 19.5234 20.5633 17.8137 20.7754C15.6323 21.0466 13.6746 19.6326 13.2465 17.4743C12.9071 15.7608 13.8031 13.9303 15.3714 13.1346C17.1055 12.2554 19.0324 12.6179 20.3461 14.0704C20.3847 14.1129 20.4245 14.154 20.4978 14.2311C20.5351 13.9946 20.5659 13.8005 20.5955 13.6051C20.85 11.9379 21.1045 10.2706 21.3578 8.60338C21.566 7.23051 21.7717 5.85764 21.9761 4.48348C22.0301 4.11969 22.237 3.9423 22.6008 3.98601C22.7563 4.004 22.917 4.04257 23.0597 4.10684C24.7038 4.84984 26.3505 5.58898 27.9843 6.35125C28.9613 6.80759 29.4639 7.59687 29.4973 8.67922C29.514 9.19983 29.4536 9.71273 29.325 10.2141C28.9188 11.7888 27.177 12.5909 25.6962 11.9032C24.6344 11.4108 23.5662 10.9326 22.4992 10.448C22.462 10.4313 22.4208 10.4197 22.3578 10.3953V10.3966Z" fill="#F2F2F2"/>
</g>
<defs>
<clipPath id="clip0_47_209">
<rect width="29" height="24.5523" fill="white" transform="translate(0.5 -0.00537109)"/>
</clipPath>
</defs>
</svg>
