<svg width="29" height="26" viewBox="0 0 29 26" fill="none" xmlns="http://www.w3.org/2000/svg">
<g clip-path="url(#clip0_21_1308)">
<path d="M0 23.7413C0 16.6019 0 9.46115 0 2.3217C0.0231383 2.51581 0.0642731 2.70991 0.0655585 2.90402C0.0732713 3.72029 0.0681294 4.53527 0.0681294 5.35154C0.0874113 4.42472 0.0951241 3.49919 0.083555 2.57237C0.0745567 1.86665 0.403635 1.36918 0.982092 1.00796C1.32017 0.798434 1.69424 0.723877 2.08373 0.723877C3.74712 0.723877 5.41051 0.723877 7.07389 0.727733C9.58054 0.734161 12.0859 0.744444 14.5926 0.752157C15.6749 0.756013 16.7573 0.756013 17.8409 0.761155C18.8423 0.766297 19.6431 1.40646 19.7935 2.37184C19.8604 2.80504 19.8501 3.25366 19.8411 3.69458C19.8218 4.67795 19.8604 5.66133 19.6958 6.64085C19.4169 8.2991 19.1842 9.96377 18.931 11.6272C18.9014 11.8238 18.8719 12.0218 18.841 12.2378C18.0273 11.9125 17.202 11.8135 16.3588 11.8624C15.5155 11.9112 14.725 12.1478 13.991 12.5643C13.2518 12.9833 12.6387 13.5451 12.1502 14.2392C10.7824 16.1841 10.7863 18.8026 12.1875 20.7501C12.8482 21.6679 13.7056 22.3492 14.7738 22.7323C16.5169 23.3583 18.1906 23.1796 19.7897 22.2309C19.7974 22.2618 19.8064 22.2823 19.8064 22.3016C19.8064 22.6641 19.8192 23.0266 19.8 23.3878C19.7601 24.1231 19.4233 24.6874 18.7639 25.0358C18.6122 25.1168 18.4374 25.1566 18.2703 25.208C18.2201 25.2235 18.1893 25.2273 18.2433 25.2762H1.69681C1.73923 25.2595 1.78165 25.2428 1.82793 25.2248C0.868972 25.1206 0.278945 24.6039 0.0527039 23.6668C0.0308511 23.6989 0.016711 23.7195 0.00128546 23.7413H0ZM9.90833 6.51616V6.5303C11.6103 6.5303 13.3109 6.5303 15.0129 6.5303C15.5566 6.5303 15.9899 6.10096 15.9924 5.56107C15.9937 5.03788 15.5708 4.6034 15.0399 4.59569C14.2673 4.58283 13.4935 4.56998 12.7209 4.56869C10.3904 4.56612 8.05856 4.56869 5.72801 4.56869C5.43493 4.56869 5.14056 4.55841 4.84747 4.56869C4.4207 4.58412 4.0762 4.75123 3.91294 5.169C3.76897 5.53793 3.81268 5.89143 4.08134 6.19866C4.29344 6.44161 4.56853 6.51873 4.88347 6.51745C6.55842 6.51231 8.23338 6.51488 9.90833 6.51488V6.51616ZM9.95461 10.3584C9.95461 10.3661 9.95461 10.3751 9.95461 10.3828C11.645 10.3828 13.3354 10.3828 15.0245 10.3828C15.4911 10.3828 15.8446 10.0949 15.9551 9.63726C16.058 9.21435 15.851 8.76958 15.4615 8.55876C15.2648 8.45207 15.054 8.4495 14.8406 8.4495C11.5409 8.44436 8.24109 8.43793 4.94003 8.43407C4.82305 8.43407 4.70479 8.44436 4.59038 8.46492C4.14304 8.54462 3.78825 9.05238 3.86024 9.501C3.94637 10.0396 4.32686 10.3584 4.89889 10.3584C6.58413 10.361 8.26809 10.3584 9.95333 10.3584H9.95461ZM7.39012 14.2251V14.2276C8.23723 14.2276 9.08564 14.2379 9.93276 14.2238C10.5009 14.2148 10.8776 13.8086 10.8891 13.2597C10.8981 12.8419 10.5562 12.2917 9.9469 12.2917C9.59468 12.2917 9.24375 12.2917 8.89153 12.2917C7.54823 12.2917 6.20492 12.284 4.86161 12.2956C4.19574 12.3007 3.75997 12.9409 3.97079 13.5708C4.09034 13.9294 4.40528 14.2366 4.99145 14.2276C5.791 14.2161 6.59056 14.2251 7.39012 14.2251Z" fill="#F2F2F2"/>
<path d="M21.858 11.1258C21.8155 11.3906 21.7744 11.64 21.7359 11.8906C21.5482 13.1208 21.3605 14.3523 21.1728 15.5825C21.0404 16.4553 20.9196 17.3307 20.773 18.2022C20.489 19.8991 19.0235 21.2925 17.3139 21.5046C15.1324 21.7758 13.1747 20.3618 12.7466 18.2035C12.4073 16.49 13.3032 14.6595 14.8715 13.8638C16.6056 12.9846 18.5325 13.3471 19.8462 14.7996C19.8848 14.8421 19.9246 14.8832 19.9979 14.9603C20.0352 14.7238 20.066 14.5297 20.0956 14.3343C20.3501 12.6671 20.6046 10.9998 20.8579 9.33257C21.0661 7.9597 21.2718 6.58682 21.4762 5.21267C21.5302 4.84888 21.7371 4.67149 22.1009 4.71519C22.2565 4.73319 22.4171 4.77175 22.5598 4.83603C24.2039 5.57902 25.8506 6.31816 27.4844 7.08044C28.4614 7.53678 28.964 8.32605 28.9974 9.40841C29.0141 9.92902 28.9537 10.4419 28.8252 10.9433C28.419 12.5179 26.6772 13.3201 25.1963 12.6323C24.1345 12.14 23.0663 11.6618 21.9994 11.1772C21.9621 11.1605 21.921 11.1489 21.858 11.1245V11.1258Z" fill="#F2F2F2"/>
</g>
<defs>
<clipPath id="clip0_21_1308">
<rect width="29" height="24.5523" fill="white" transform="translate(0 0.723877)"/>
</clipPath>
</defs>
</svg>
