<svg width="36" height="36" viewBox="0 0 36 36" fill="none" xmlns="http://www.w3.org/2000/svg">
<path d="M25.504 23.616L21.714 20.393C21.3219 20.04 20.903 19.879 20.5649 19.894C21.5708 18.7146 22.0811 17.1916 21.989 15.6442C21.8969 14.0968 21.2095 12.6451 20.0708 11.5933C18.9321 10.5415 17.4306 9.97119 15.8807 10.0019C14.3309 10.0326 12.8531 10.662 11.757 11.7581C10.6609 12.8542 10.0315 14.332 10.0008 15.8818C9.97009 17.4317 10.5404 18.9332 11.5922 20.0719C12.644 21.2106 14.0957 21.898 15.6431 21.9901C17.1905 22.0822 18.7135 21.5719 19.893 20.566C19.877 20.904 20.039 21.323 20.392 21.715L23.615 25.505C24.167 26.118 25.068 26.17 25.618 25.62C26.1679 25.07 26.116 24.168 25.503 23.617L25.504 23.616ZM15.9999 20C14.9391 20 13.9217 19.5786 13.1715 18.8285C12.4214 18.0783 11.9999 17.0609 11.9999 16C11.9999 14.9392 12.4214 13.9218 13.1715 13.1716C13.9217 12.4215 14.9391 12 15.9999 12C17.0608 12 18.0782 12.4215 18.8284 13.1716C19.5785 13.9218 20 14.9392 20 16C20 17.0609 19.5785 18.0783 18.8284 18.8285C18.0782 19.5786 17.0608 20 15.9999 20Z" fill="#F2F2F2"/>
</svg>
