<svg width="39" height="40" viewBox="0 0 39 40" fill="none" xmlns="http://www.w3.org/2000/svg">
<rect y="0.5" width="38.1333" height="39" rx="4.33333" fill="url(#paint0_linear_131_59)" fill-opacity="0.09"/>
<g clip-path="url(#clip0_131_59)">
<path d="M10.4779 28.2143C10.4779 22.7545 10.4779 17.2937 10.4779 11.8339C10.4956 11.9823 10.5271 12.1307 10.528 12.2792C10.5339 12.9034 10.53 13.5267 10.53 14.1509C10.5448 13.4421 10.5507 12.7343 10.5418 12.0256C10.5349 11.4859 10.7866 11.1054 11.229 10.8292C11.4875 10.669 11.7736 10.6119 12.0714 10.6119C13.3435 10.6119 14.6155 10.6119 15.8876 10.6149C17.8045 10.6198 19.7205 10.6277 21.6374 10.6336C22.4651 10.6365 23.2929 10.6365 24.1216 10.6404C24.8874 10.6444 25.4998 11.1339 25.6148 11.8722C25.6659 12.2035 25.6581 12.5466 25.6512 12.8838C25.6364 13.6358 25.6659 14.3878 25.5401 15.1369C25.3268 16.405 25.1488 17.6781 24.9552 18.9501C24.9326 19.1005 24.91 19.2519 24.8864 19.4171C24.2641 19.1683 23.633 19.0927 22.9881 19.13C22.3432 19.1674 21.7387 19.3482 21.1773 19.6667C20.6121 19.9872 20.1432 20.4168 19.7696 20.9477C18.7237 22.435 18.7266 24.4375 19.7981 25.9268C20.3034 26.6287 20.9591 27.1497 21.776 27.4426C23.109 27.9214 24.3889 27.7847 25.6119 27.0592C25.6178 27.0828 25.6246 27.0986 25.6246 27.1133C25.6246 27.3905 25.6345 27.6677 25.6197 27.944C25.5892 28.5063 25.3317 28.9378 24.8274 29.2042C24.7114 29.2662 24.5777 29.2966 24.4499 29.336C24.4116 29.3478 24.388 29.3507 24.4293 29.3881H11.7755C11.808 29.3753 11.8404 29.3625 11.8758 29.3487C11.1424 29.2691 10.6912 28.8739 10.5182 28.1573C10.5015 28.1819 10.4907 28.1976 10.4789 28.2143H10.4779ZM18.0552 15.0415V15.0523C19.3568 15.0523 20.6573 15.0523 21.9589 15.0523C22.3747 15.0523 22.706 14.724 22.7079 14.3111C22.7089 13.911 22.3855 13.5788 21.9795 13.5729C21.3887 13.563 20.7969 13.5532 20.2061 13.5522C18.4238 13.5503 16.6406 13.5522 14.8583 13.5522C14.6342 13.5522 14.4091 13.5444 14.185 13.5522C13.8586 13.564 13.5951 13.6918 13.4703 14.0113C13.3602 14.2934 13.3936 14.5638 13.5991 14.7987C13.7613 14.9845 13.9716 15.0435 14.2125 15.0425C15.4934 15.0386 16.7743 15.0405 18.0552 15.0405V15.0415ZM18.0906 17.9798C18.0906 17.9857 18.0906 17.9926 18.0906 17.9985C19.3833 17.9985 20.676 17.9985 21.9677 17.9985C22.3246 17.9985 22.5949 17.7783 22.6794 17.4284C22.7581 17.1049 22.5998 16.7648 22.3019 16.6036C22.1515 16.522 21.9903 16.52 21.8271 16.52C19.3037 16.5161 16.7802 16.5112 14.2557 16.5082C14.1663 16.5082 14.0758 16.5161 13.9884 16.5318C13.6463 16.5928 13.3749 16.9811 13.43 17.3242C13.4958 17.7361 13.7868 17.9798 14.2243 17.9798C15.5131 17.9818 16.8008 17.9798 18.0896 17.9798H18.0906ZM16.1294 20.9368V20.9388C16.7772 20.9388 17.4261 20.9467 18.0739 20.9359C18.5084 20.929 18.7964 20.6183 18.8053 20.1986C18.8121 19.8791 18.5507 19.4583 18.0847 19.4583C17.8153 19.4583 17.547 19.4583 17.2776 19.4583C16.2503 19.4583 15.2231 19.4524 14.1958 19.4613C13.6866 19.4652 13.3533 19.9548 13.5145 20.4365C13.6059 20.7107 13.8468 20.9457 14.2951 20.9388C14.9065 20.93 15.518 20.9368 16.1294 20.9368Z" fill="#F2F2F2"/>
<path d="M27.1936 18.5667C27.1612 18.7692 27.1297 18.9599 27.1002 19.1516C26.9567 20.0924 26.8132 21.0342 26.6696 21.9749C26.5684 22.6424 26.476 23.3119 26.3639 23.9784C26.1467 25.276 25.026 26.3416 23.7185 26.5038C22.0503 26.7112 20.5531 25.6299 20.2258 23.9794C19.9663 22.669 20.6514 21.2691 21.8508 20.6606C23.1769 19.9882 24.6505 20.2654 25.6551 21.3763C25.6846 21.4087 25.7151 21.4402 25.7711 21.4991C25.7996 21.3183 25.8232 21.1698 25.8458 21.0204C26.0405 19.7454 26.2351 18.4704 26.4288 17.1954C26.588 16.1455 26.7453 15.0956 26.9016 14.0447C26.9429 13.7665 27.1012 13.6309 27.3794 13.6643C27.4983 13.678 27.6212 13.7075 27.7303 13.7567C28.9876 14.3249 30.2469 14.8901 31.4964 15.4731C32.2435 15.8221 32.6279 16.4257 32.6534 17.2534C32.6662 17.6515 32.62 18.0437 32.5217 18.4271C32.211 19.6314 30.879 20.2448 29.7466 19.7188C28.9346 19.3423 28.1177 18.9766 27.3017 18.606C27.2732 18.5933 27.2418 18.5844 27.1936 18.5657V18.5667Z" fill="#F2F2F2"/>
</g>
<defs>
<linearGradient id="paint0_linear_131_59" x1="19.0667" y1="0.5" x2="19.0667" y2="39.5" gradientUnits="userSpaceOnUse">
<stop stop-color="#F2F2F2"/>
<stop offset="1" stop-color="#8C8C8C"/>
</linearGradient>
<clipPath id="clip0_131_59">
<rect width="22.1775" height="18.7761" fill="white" transform="translate(10.4779 10.6119)"/>
</clipPath>
</defs>
</svg>
