<svg width="74" height="37" viewBox="0 0 74 37" fill="none" xmlns="http://www.w3.org/2000/svg">
<g opacity="0.45">
<path d="M73.3104 36.6207C73.3104 56.6172 57.1 72.8276 37.1035 72.8276C17.107 72.8276 0.896606 56.6172 0.896606 36.6207C0.896606 16.6242 17.107 0.413818 37.1035 0.413818C57.1 0.413818 73.3104 16.6242 73.3104 36.6207ZM14.8277 36.6207C14.8277 48.9233 24.8009 58.8965 37.1035 58.8965C49.4061 58.8965 59.3793 48.9233 59.3793 36.6207C59.3793 24.3181 49.4061 14.3449 37.1035 14.3449C24.8009 14.3449 14.8277 24.3181 14.8277 36.6207Z" fill="#1C1C1C"/>
<path d="M55.2069 37.2241C55.2069 46.8891 47.3719 54.7241 37.7069 54.7241C28.0419 54.7241 20.2069 46.8891 20.2069 37.2241C20.2069 27.5591 28.0419 19.7241 37.7069 19.7241C47.3719 19.7241 55.2069 27.5591 55.2069 37.2241ZM30.0593 37.2241C30.0593 41.4478 33.4832 44.8718 37.7069 44.8718C41.9306 44.8718 45.3546 41.4478 45.3546 37.2241C45.3546 33.0004 41.9306 29.5765 37.7069 29.5765C33.4832 29.5765 30.0593 33.0004 30.0593 37.2241Z" fill="#F2F2F2"/>
</g>
</svg>
