<svg width="74" height="37" viewBox="0 0 74 37" fill="none" xmlns="http://www.w3.org/2000/svg">
<g opacity="0.45">
<path d="M73.3104 36.8622C73.3104 56.8587 57.1 73.0691 37.1035 73.0691C17.107 73.0691 0.896606 56.8587 0.896606 36.8622C0.896606 16.8657 17.107 0.655273 37.1035 0.655273C57.1 0.655273 73.3104 16.8657 73.3104 36.8622ZM14.8277 36.8622C14.8277 49.1648 24.8009 59.138 37.1035 59.138C49.4061 59.138 59.3793 49.1648 59.3793 36.8622C59.3793 24.5596 49.4061 14.5864 37.1035 14.5864C24.8009 14.5864 14.8277 24.5596 14.8277 36.8622Z" fill="#1C1C1C"/>
<path d="M55.2069 37.4656C55.2069 47.1306 47.3719 54.9656 37.7069 54.9656C28.0419 54.9656 20.2069 47.1306 20.2069 37.4656C20.2069 27.8006 28.0419 19.9656 37.7069 19.9656C47.3719 19.9656 55.2069 27.8006 55.2069 37.4656ZM30.0593 37.4656C30.0593 41.6893 33.4832 45.1132 37.7069 45.1132C41.9306 45.1132 45.3546 41.6893 45.3546 37.4656C45.3546 33.2419 41.9306 29.8179 37.7069 29.8179C33.4832 29.8179 30.0593 33.2419 30.0593 37.4656Z" fill="#1C1C1C"/>
</g>
</svg>
