<svg width="350" height="56" viewBox="0 0 350 56" fill="none" xmlns="http://www.w3.org/2000/svg">
<g filter="url(#filter0_b_21_1298)">
<mask id="path-1-inside-1_21_1298" fill="white">
<path fill-rule="evenodd" clip-rule="evenodd" d="M174.5 48C194.658 48 211 31.6584 211 11.5C211 5.74155 215.091 0 220.849 0H322C337.464 0 350 12.536 350 28C350 43.464 337.464 56 322 56H28C12.536 56 0 43.464 0 28C0 12.536 12.536 0 28 0H128.151C133.909 0 138 5.74155 138 11.5C138 31.6584 154.342 48 174.5 48Z"/>
</mask>
<path fill-rule="evenodd" clip-rule="evenodd" d="M174.5 48C194.658 48 211 31.6584 211 11.5C211 5.74155 215.091 0 220.849 0H322C337.464 0 350 12.536 350 28C350 43.464 337.464 56 322 56H28C12.536 56 0 43.464 0 28C0 12.536 12.536 0 28 0H128.151C133.909 0 138 5.74155 138 11.5C138 31.6584 154.342 48 174.5 48Z" fill="#1C1C1C"/>
<path d="M210 11.5C210 31.1061 194.106 47 174.5 47V49C195.211 49 212 32.2107 212 11.5H210ZM220.849 1H322V-1H220.849V1ZM322 1C336.912 1 349 13.0883 349 28H351C351 11.9837 338.016 -1 322 -1V1ZM349 28C349 42.9117 336.912 55 322 55V57C338.016 57 351 44.0163 351 28H349ZM322 55H28V57H322V55ZM28 55C13.0883 55 1 42.9117 1 28H-1C-1 44.0163 11.9837 57 28 57V55ZM1 28C1 13.0883 13.0883 1 28 1V-1C11.9837 -1 -1 11.9837 -1 28H1ZM28 1H128.151V-1H28V1ZM174.5 47C154.894 47 139 31.1061 139 11.5H137C137 32.2107 153.789 49 174.5 49V47ZM128.151 1C130.673 1 132.867 2.2521 134.457 4.21929C136.054 6.19414 137 8.84652 137 11.5H139C139 8.39503 137.901 5.29741 136.013 2.96187C134.118 0.618676 131.388 -1 128.151 -1V1ZM212 11.5C212 8.84652 212.946 6.19414 214.543 4.2193C216.133 2.2521 218.327 1 220.849 1V-1C217.612 -1 214.882 0.618676 212.987 2.96187C211.099 5.29741 210 8.39503 210 11.5H212Z" fill="#F2F2F2" fill-opacity="0.11" mask="url(#path-1-inside-1_21_1298)"/>
</g>
<defs>
<filter id="filter0_b_21_1298" x="-10" y="-10" width="370" height="76" filterUnits="userSpaceOnUse" color-interpolation-filters="sRGB">
<feFlood flood-opacity="0" result="BackgroundImageFix"/>
<feGaussianBlur in="BackgroundImageFix" stdDeviation="5"/>
<feComposite in2="SourceAlpha" operator="in" result="effect1_backgroundBlur_21_1298"/>
<feBlend mode="normal" in="SourceGraphic" in2="effect1_backgroundBlur_21_1298" result="shape"/>
</filter>
</defs>
</svg>
